<svg xmlns="http://www.w3.org/2000/svg" id="Layer_1" data-name="Layer 1" viewBox="0 0 259.55 445.61"><defs><style>.cls-1,.cls-2{fill:#011f5b;stroke:#000;stroke-miterlimit:10}.cls-2{fill:#900}</style></defs><path d="M111.89.5h90.26v21.73h-90.26zM216.78 11.36h-14.63zM111.89 11.36H97.27M111.89 74.04h90.26v21.73h-90.26z" class="cls-2"/><path d="M79.51 37.27h50.14V59H79.51z" class="cls-1"/><path d="M111.48 147.59h90.26v21.73h-90.26zM216.36 158.45h-14.63zM111.48 158.45H96.85" class="cls-2"/><path d="M79.09 110.82h50.14v21.73H79.09z" class="cls-1"/><path d="M85.69 243.5h116.27v21.73H85.69z" class="cls-2"/><path d="M152.32 202.99h50.14v21.73h-50.14z" class="cls-1"/><path d="M217.09 213.85h-14.63zM151.31 213.85h-14.63z" class="cls-2"/><path d="M152.83 284.01h50.14v21.73h-50.14z" class="cls-1"/><path d="M217.6 294.87h-14.63zM151.82 294.87h-14.63z" class="cls-2"/><path d="M170.82 366.76h28.85v21.73h-28.85z" class="cls-1"/><path d="M214.3 377.63h-14.63zM172.73 377.63H158.1z" class="cls-2"/><path d="M72.8 366.76h28.85v21.73H72.8z" class="cls-1"/><path d="M116.28 377.63h-14.63zM74.71 377.63H60.08zM88.63 329.75h90.26v21.73H88.63zM150.25 400.21h24.35v21.73h-24.35zM96.51 400.21h24.35v21.73H96.51z" class="cls-2"/></svg>