<svg xmlns="http://www.w3.org/2000/svg" id="a" data-name="Layer 1" viewBox="0 0 422.44 402.55"><defs><style>.b,.c{fill:#011f5b;stroke:#000;stroke-miterlimit:10}.c{fill:#900}</style></defs><path d="M.5 104.84h21.73v90.26H.5zM11.36 90.22v14.63zM11.36 195.1v14.63M74.04 104.84h21.73v90.26H74.04z" class="c"/><path d="M37.27 177.34H59v50.14H37.27z" class="b"/><path d="M147.59 105.26h21.73v90.26h-21.73zM158.45 90.63v14.63zM158.45 195.52v14.62" class="c"/><path d="M110.82 177.76h21.73v50.14h-21.73z" class="b"/><path d="M243.5 105.03h21.73V221.3H243.5z" class="c"/><path d="M202.99 104.53h21.73v50.14h-21.73z" class="b"/><path d="M213.85 89.9v14.63zM213.85 155.68v14.63z" class="c"/><path d="M284.01 104.02h21.73v50.14h-21.73z" class="b"/><path d="M294.87 89.4v14.63zM294.87 155.18v14.63z" class="c"/><path d="M366.76 107.32h21.73v28.85h-21.73z" class="b"/><path d="M377.63 92.7v14.63zM377.63 134.27v14.63z" class="c"/><path d="M366.76 205.34h21.73v28.85h-21.73z" class="b"/><path d="M377.63 190.71v14.63zM377.63 232.28v14.63zM329.75 128.11h21.73v90.26h-21.73zM400.21 132.39h21.73v24.35h-21.73zM400.21 186.14h21.73v24.35h-21.73z" class="c"/></svg>